<svg xmlns="http://www.w3.org/2000/svg" width="563" height="555"><path d="M0 0h563v555H0V0Z"/><path fill="#F8F8F8" d="m66 197 17.188-.313 5.336-.137c11.653-.174 23.125 1.12 31.984 9.65 7.352 8.871 10.04 17.47 9.87 28.902-.855 8.807-4.689 17.014-11.378 22.898-11.09 8.576-22.22 8.39-35.563 8.188L66 266v-69Z"/><path fill="#F9F9F9" d="m337 197 16.813-.25 5.233-.11c12.262-.151 22.713 1.585 31.954 10.36 7.81 8.395 9.671 16.885 9.41 28.21-.996 9.201-5.15 17.907-12.41 23.79-8.171 4.9-14.578 7.164-24.047 7.098l-2.073-.003c-2.543-.006-5.087-.02-7.63-.033L337 266v-69Z"/><path fill="#F8F8F8" d="M438 197c13 0 13 0 16.324 2.387 1.22 1.574 1.22 1.574 2.363 3.3l1.334 1.78a164.133 164.133 0 0 1 2.684 3.703c1.229 1.737 2.504 3.42 3.815 5.096 2.52 3.223 5 6.479 7.48 9.734l11 14 1-40h15v69c-12 0-12 0-16.438-3.938-1.12-1.431-2.236-2.866-3.305-4.337-1.402-1.924-2.854-3.803-4.316-5.682a706.712 706.712 0 0 1-6.34-8.309c-4.793-6.301-9.71-12.508-14.601-18.734l-1 41h-15v-69ZM209 197c13 0 13 0 16.324 2.387 1.22 1.574 1.22 1.574 2.363 3.3l1.334 1.78a164.133 164.133 0 0 1 2.684 3.703c1.229 1.737 2.504 3.42 3.815 5.096 2.52 3.223 5 6.479 7.48 9.734l11 14 1-40h15v69c-12 0-12 0-16.438-3.938-1.12-1.431-2.236-2.866-3.305-4.337-1.402-1.924-2.854-3.803-4.316-5.682a706.712 706.712 0 0 1-6.34-8.309c-4.793-6.301-9.71-12.508-14.601-18.734l-1 41h-15v-69Z"/><path fill="#F7F7F7" d="M137 197h17l.044 4.127c.058 5.066.136 10.131.218 15.197a1375 1375 0 0 1 .084 6.57c.034 3.153.086 6.305.142 9.458l.02 2.955c.132 6.173.931 10.599 4.992 15.506 3.492 2.764 7.256 2.403 11.5 2.187 3.294-.541 3.294-.541 6-2 1.389-2.429 1.389-2.429 2-5l1-2c.118-1.51.177-3.026.205-4.542l.06-2.85.051-3.085.063-3.152c.066-3.332.125-6.664.184-9.996l.13-6.766c.108-5.536.209-11.072.307-16.609h17c.1 6.51.172 13.02.22 19.531.02 2.212.047 4.423.082 6.634.049 3.193.071 6.384.089 9.577l.062 2.96c.003 9.66-2.882 17.541-9.52 24.607-8.086 7.073-17.787 7.351-28.032 6.87-7.116-.67-13.171-5.03-17.901-10.179-5.701-7.732-6.294-15.507-6.195-24.746l.008-3.064c.011-3.21.036-6.418.062-9.627.01-2.185.02-4.369.027-6.553.022-5.337.057-10.673.098-16.01Z"/><path fill="#FBFBFB" d="M283 197h45v12h-28v16h21v12h-21v17h28v12h-45v-69Z"/><path fill="#050505" d="M83 209c18.563 0 18.563 0 23.813 4.582 5.687 6.275 6.588 11.855 6.437 20.191-.541 6.988-3.067 12.382-8.25 17.227-7.092 3.932-13.794 3-22 3v-45Z"/><path fill="#F6F6F6" d="M409 197h17v69h-17v-69Z"/><path fill="#010101" d="M354 209c17.477 0 17.477 0 22.816 4.547 6.022 6.559 6.643 13.366 6.497 22.035-.556 6.071-2.688 10.165-7.125 14.293C368.668 254.887 363.488 254 354 254v-45Z"/><path fill="#EEE" d="M395 294c6 0 6 0 8.352 2.063l2.273 2.937 1.26 1.6A353.476 353.476 0 0 1 411 306l3.102 4.078c2.992 3.955 5.946 7.937 8.898 11.922l6 8 1-36h7v52c-6 0-6 0-8.64-2.605a141.816 141.816 0 0 1-2.61-3.582l-1.42-1.911a446.566 446.566 0 0 1-2.904-3.952c-2.168-2.965-4.425-5.86-6.676-8.762l-2.266-2.958c-3.145-4.089-6.317-8.158-9.484-12.23l-1 36h-7v-52Z"/><path fill="#F0F0F0" d="M176 294c7 0 7 0 9.414 2.246.73 1.053 1.46 2.106 2.211 3.192l2.55 3.566 1.363 1.946c2.653 3.72 5.479 7.31 8.274 10.925 1.071 1.392 2.14 2.785 3.208 4.18l1.378 1.796c2.248 3.015 4.416 6.089 6.602 9.149l1-37h6v52c-6 0-6 0-7.884-1.614l-1.596-2.269-1.824-2.52-1.883-2.722c-1.32-1.836-2.64-3.67-3.961-5.504l-1.964-2.758c-2.631-3.642-5.397-7.166-8.2-10.675-2.33-2.925-4.611-5.823-6.688-8.938l-1 37h-7v-52ZM155.875 294.563c6.3 3.288 10.856 7.82 13.532 14.454 1.075 3.593 1.124 7.13 1.093 10.858l-.02 2.411c-.236 7.6-2.136 12.235-7.417 17.73-6.77 6.308-12.276 7.508-21.477 7.363-6.579-.695-12.054-3.335-16.524-8.254-4.196-6.358-5.626-11.42-5.562-18.938l.02-2.4c.234-7.54 1.848-13.302 7.418-18.646 8.396-6.68 18.738-8.662 28.937-4.579Zm-23.48 8.8c-4.851 5.505-5.792 10.7-5.649 17.785.562 6.313 2.434 12.54 7.254 16.852 5.96 3.07 11.522 3.616 18 2 5.092-2.037 6.636-5.272 9-10 2.08-6.238 2.072-15.13.316-21.469-2.161-4.09-5.233-6.528-9.316-8.531-6.765-1.85-14.086-1.323-19.605 3.363ZM482.875 295.375c3.918 2.211 3.918 2.211 5.125 4.625l-3 4-2.563-.875L479 302l-3.438-1.125c-6.538-1.606-11-1.23-16.835 1.992-4.251 2.79-5.346 6.401-6.727 11.133-.813 7.616-.833 14.748 4 21 3.167 3.299 6.27 5.768 10.98 6.168 5.355.047 9.876-.672 15.02-2.168v-12h-10v-5h17v20c-8.624 5.39-16.13 6.08-26 5-6.73-1.607-11.9-5.467-16-11-4.086-6.975-5.04-14.033-4-22 2.156-8.185 5.988-14.484 13.375-18.875 8.427-3.874 18.163-3.763 26.5.25Z"/><path fill="#ECECEC" d="M262 294h8l.044 3.425c.058 4.197.135 8.394.218 12.59.034 1.816.062 3.632.084 5.448.034 2.612.086 5.222.142 7.834l.02 2.456c.114 4.402.465 6.987 3.492 10.247v2c4.45 1.424 8.284 2.602 13 2 3.212-1.668 5.397-2.89 7.146-6.108 1.128-3.82 1.21-7.524 1.268-11.474l.059-2.467c.06-2.588.106-5.176.152-7.764.038-1.76.077-3.52.117-5.279.096-4.302.18-8.605.258-12.908h8c.1 4.944.172 9.887.22 14.832.02 1.677.047 3.355.082 5.033.387 19.119.387 19.119-4.302 26.135-6.36 6.152-11.627 7.319-20.313 7.215-6.132-.49-9.75-3.745-13.687-8.215-3.902-5.714-4.143-10.473-4.098-17.266l.005-2.404c.005-2.527.018-5.053.03-7.58.006-1.716.01-3.432.014-5.148.011-4.201.028-8.401.049-12.602Z"/><path fill="#F1F1F1" d="M112.75 294.75c3.14 2.174 3.832 2.942 5.25 6.25l-2 3c-2.697-.54-4.739-1.355-7.25-2.563-5.16-2.242-9.654-2.203-15-.25-4.163 2.744-6.873 6.214-8.75 10.813-.92 9.029-.12 16.216 4.875 23.875 3.5 3.5 6.097 4.042 11 4.438 4.192-.103 7.373-1.437 11.125-3.313l2.438-1.188L116 335l3 3c-1.503 4.676-4.865 5.859-9 8-5.096 2.548-13.051 1.736-18.457.387-6.654-2.98-11.798-8.78-14.48-15.512-2.181-7.941-2.487-16.725.937-24.313 7.132-12.298 21.273-18.093 34.75-11.812Z"/><path fill="#F2F2F2" d="M248 293c2.996 1.31 5.48 2.925 8 5l-2 5c-2.66-.456-4.875-.94-7.313-2.125-3.919-1.276-6.646-.67-10.687.125-2.38 1.935-2.38 1.935-2.188 5.438.028 3.524.028 3.524 1.188 6.562 2.061.887 2.061.887 4.563 1.438 6.014 1.66 11.095 3.63 15.937 7.625 2.335 4.573 2.232 8.91 1.5 13.937-2.185 4.451-4.94 7.189-9 10-5.558 1.853-12.015 2.151-17.531.023-5.044-2.979-5.044-2.979-6.301-6.07L224 338l2-2c3.216.276 5.45 1.217 8.375 2.625 4.198 1.592 6.331 1.59 10.625.375 2.563-1.48 2.563-1.48 4-4 .833-3.5.833-3.5 0-7-3.468-3.28-7-4.352-11.5-5.813-4.51-1.6-7.656-3.173-10.527-7.066-1.987-4.332-2-8.519-.973-13.121 4.927-8.86 12.446-10.255 22-9Z"/><path fill="#F1F1F1" d="M334 294h41v6h-17v46h-8v-46h-16v-6Z"/><path fill="#EEE" d="M312 294h8v46h22v6h-30v-52Z"/><path fill="#EAEAEA" d="M378 294h8v52h-8v-52Z"/><path fill="#D8D8D8" d="m131 296 2 1-9 9c0-3 0-3 2.375-5.563L129 298l2-2Z"/></svg>